HIERARCHY
ROOT Hips
{
	OFFSET 0.000000 0.000000 0.000000
	CHANNELS 6 Xposition Yposition Zposition Zrotation Yrotation Xrotation
	JOINT LHipJoint
	{
		OFFSET 0.000000 0.000000 0.000000
		CHANNELS 3 Zrotation Yrotation Xrotation
		JOINT LeftUpLeg
		{
			OFFSET 1.363060 -1.794630 0.839290
			CHANNELS 3 Zrotation Yrotation Xrotation
			JOINT LeftLeg
			{
				OFFSET 2.448110 -6.726130 0.000000
				CHANNELS 3 Zrotation Yrotation Xrotation
				JOINT LeftFoot
				{
					OFFSET 2.562200 -7.039590 0.000000
					CHANNELS 3 Zrotation Yrotation Xrotation
					JOINT LeftToeBase
					{
						OFFSET 0.157640 -0.433110 2.322550
						CHANNELS 3 Zrotation Yrotation Xrotation
						End Site
						{
							OFFSET 0.000000 0.000000 0.000000
						}
					}
				}
			}
		}
	}
	JOINT RHipJoint
	{
		OFFSET 0.000000 0.000000 0.000000
		CHANNELS 3 Zrotation Yrotation Xrotation
		JOINT RightUpLeg
		{
			OFFSET -1.305520 -1.794630 0.839290
			CHANNELS 3 Zrotation Yrotation Xrotation
			JOINT RightLeg
			{
				OFFSET -2.542530 -6.985550 0.000000
				CHANNELS 3 Zrotation Yrotation Xrotation
				JOINT RightFoot
				{
					OFFSET -2.568260 -7.056230 0.000000
					CHANNELS 3 Zrotation Yrotation Xrotation
					JOINT RightToeBase
					{
						OFFSET -0.164730 -0.452590 2.363150
						CHANNELS 3 Zrotation Yrotation Xrotation
						End Site
						{
							OFFSET 0.000000 0.000000 0.000000
						}
					}
				}
			}
		}
	}
	JOINT LowerBack
	{
		OFFSET 0.000000 0.000000 0.000000
		CHANNELS 3 Zrotation Yrotation Xrotation
		JOINT Spine
		{
			OFFSET 0.028270 2.035590 -0.193380
			CHANNELS 3 Zrotation Yrotation Xrotation
			JOINT Spine1
			{
				OFFSET 0.056720 2.048850 -0.042750
				CHANNELS 3 Zrotation Yrotation Xrotation
				JOINT Neck
				{
					OFFSET 0.000000 0.000000 0.000000
					CHANNELS 3 Zrotation Yrotation Xrotation
					JOINT Neck1
					{
						OFFSET -0.054170 1.746240 0.172020
						CHANNELS 3 Zrotation Yrotation Xrotation
						JOINT Head
						{
							OFFSET 0.104070 1.761360 -0.123970
							CHANNELS 3 Zrotation Yrotation Xrotation
							End Site
							{
								OFFSET 0.000000 0.000000 0.000000
							}
						}
					}
				}
				JOINT LeftShoulder
				{
					OFFSET 0.000000 0.000000 0.000000
					CHANNELS 3 Zrotation Yrotation Xrotation
					JOINT LeftArm
					{
						OFFSET 3.362410 1.200890 -0.311210
						CHANNELS 3 Zrotation Yrotation Xrotation
						JOINT LeftForeArm
						{
							OFFSET 4.983000 -0.000000 -0.000000
							CHANNELS 3 Zrotation Yrotation Xrotation
							JOINT LeftHand
							{
								OFFSET 3.483560 -0.000000 -0.000000
								CHANNELS 3 Zrotation Yrotation Xrotation
								JOINT LeftFingerBase
								{
									OFFSET 0.000000 0.000000 0.000000
									CHANNELS 3 Zrotation Yrotation Xrotation
									JOINT LeftHandIndex1
									{
										OFFSET 0.715260 -0.000000 -0.000000
										CHANNELS 3 Zrotation Yrotation Xrotation
										End Site
										{
											OFFSET 0.000000 0.000000 0.000000
										}
									}
								}
								JOINT LThumb
								{
									OFFSET 0.000000 0.000000 0.000000
									CHANNELS 3 Zrotation Yrotation Xrotation
									End Site
									{
										OFFSET 0.000000 0.000000 0.000000
									}
								}
							}
						}
					}
				}
				JOINT RightShoulder
				{
					OFFSET 0.000000 0.000000 0.000000
					CHANNELS 3 Zrotation Yrotation Xrotation
					JOINT RightArm
					{
						OFFSET -3.136600 1.374050 -0.404650
						CHANNELS 3 Zrotation Yrotation Xrotation
						JOINT RightForeArm
						{
							OFFSET -5.241900 -0.000000 -0.000000
							CHANNELS 3 Zrotation Yrotation Xrotation
							JOINT RightHand
							{
								OFFSET -3.444170 -0.000000 -0.000000
								CHANNELS 3 Zrotation Yrotation Xrotation
								JOINT RightFingerBase
								{
									OFFSET 0.000000 0.000000 0.000000
									CHANNELS 3 Zrotation Yrotation Xrotation
									JOINT RightHandIndex1
									{
										OFFSET -0.622530 -0.000000 -0.000000
										CHANNELS 3 Zrotation Yrotation Xrotation
										End Site
										{
											OFFSET 0.000000 0.000000 0.000000
										}
									}
								}
								JOINT RThumb
								{
									OFFSET 0.000000 0.000000 0.000000
									CHANNELS 3 Zrotation Yrotation Xrotation
									End Site
									{
										OFFSET 0.000000 0.000000 0.000000
									}
								}
							}
						}
					}
				}
			}
		}
	}
}
MOTION
Frames: 12
Frame Time: 0.008333
0.269063 -1.703587 21.590916 12.316154 12.582724 -4.115907 -0.733286 2.388587 4.303452 -19.747574 8.900999 58.010334 -0.374785 0.348465 -12.634396 5.790730 -19.287550 -21.655329 -0.054720 -1.179683 15.091540 0.047611 1.295059 -0.338676 -13.153617 -0.084576 -54.907841 -5.779773 -5.591902 12.121932 3.068766 -7.976291 16.202024 0.497569 11.593251 -6.587412 -15.715425 -4.383659 -2.449510 -0.926003 -8.768266 1.554476 6.148709 -5.012463 2.303833 -2.131757 0.294245 0.845185 3.081285 -0.367591 -3.258031 0.692413 2.021941 3.293164 -3.675686 0.467063 0.681514 -9.592413 -20.540808 14.319057 6.528239 1.866784 -3.823771 -0.229753 -0.436892 -3.185049 -12.030907 -10.426579 1.864118 0.227495 0.000000 0.000000 28.325188 8.468179 21.256182 -0.744770 -0.333062 -0.718035 -15.794328 -23.172260 -29.351381 16.536680 -6.535921 5.588365 0.626418 -0.390220 23.450584 -45.240829 -9.971593 17.593327 1.016354 0.000000 0.000000 -16.376280 6.471347 43.682384
0.268883 -1.711864 21.611809 12.308029 12.770916 -4.058786 -0.655763 2.431083 4.336309 -19.798031 8.966788 58.389046 -0.408995 0.250911 -13.148480 5.835941 -19.463440 -21.504280 -0.047490 -1.142902 15.031581 0.017691 1.325507 -0.335983 -13.121318 0.070874 -54.759346 -5.376660 -5.272737 11.197227 3.082556 -8.303965 16.209753 0.503282 11.828239 -7.004023 -15.783023 -4.388734 -2.503944 -0.932473 -8.796799 1.607638 6.184543 -5.074302 2.346288 -2.052660 0.285572 0.850411 3.111900 -0.335972 -3.391244 0.664832 2.043608 3.300691 -3.724494 0.442080 0.669927 -9.835162 -20.587687 14.117822 6.620976 1.727782 -3.877063 -0.234048 -0.437976 -3.486516 -12.030849 -10.271243 1.769667 0.219539 0.000000 0.000000 28.297785 8.352630 21.669355 -0.757860 -0.339346 -0.718805 -16.213648 -23.192671 -29.699604 16.581310 -6.551730 5.542477 0.638748 -0.413438 24.053741 -46.188171 -9.586257 16.574106 1.019313 0.000000 0.000000 -16.804331 5.820977 44.229023
0.265627 -1.713478 21.665386 12.309955 12.970836 -4.011608 -0.577774 2.478040 4.377664 -19.812782 9.066207 58.919109 -0.424972 0.182960 -13.586982 5.884064 -19.620598 -21.360804 -0.043765 -1.108881 14.940350 -0.039099 1.342002 -0.329153 -13.053760 0.131833 -54.876553 -5.067121 -5.097413 10.228002 3.093189 -8.707646 16.139536 0.476114 11.979661 -7.457430 -15.839882 -4.384932 -2.517631 -0.926265 -8.821190 1.666898 6.229758 -5.128643 2.412354 -1.960472 0.287134 0.867445 3.149311 -0.283009 -3.493769 0.663989 2.074189 3.324458 -3.754453 0.433695 0.660439 -10.013685 -20.631508 13.891825 6.705732 1.596426 -3.930315 -0.237320 -0.438493 -3.726247 -11.998753 -10.137815 1.699403 0.224044 0.000000 0.000000 28.542994 8.481007 22.347366 -0.742275 -0.323749 -0.709951 -16.478828 -23.165674 -29.967995 16.687304 -6.504657 5.530487 0.657462 -0.432387 24.669882 -46.951145 -9.073760 15.677091 1.027233 0.000000 0.000000 -16.981836 5.315820 45.077576
0.268451 -1.698267 21.801666 12.329165 13.197235 -3.933219 -0.463264 2.540219 4.434632 -19.788815 9.196583 59.515354 -0.432831 0.135377 -13.984118 5.936913 -19.751589 -21.161812 -0.030445 -1.038386 14.977085 -0.054481 1.371152 -0.296021 -12.911310 0.243670 -54.923611 -4.724276 -4.858665 9.386503 3.136485 -8.915805 16.228298 0.474640 12.210550 -7.913968 -15.894554 -4.378833 -2.517443 -0.918951 -8.847780 1.729976 6.281008 -5.181944 2.481326 -1.862242 0.291734 0.892359 3.193758 -0.214082 -3.569399 0.679836 2.111064 3.364960 -3.768258 0.433526 0.653790 -10.101141 -20.650911 13.731502 6.816635 1.492320 -3.976784 -0.236045 -0.431841 -3.940997 -11.961593 -10.028399 1.629349 0.229485 0.000000 0.000000 28.793175 8.601390 23.033033 -0.726612 -0.309308 -0.699603 -16.704151 -23.131855 -30.223272 16.817993 -6.428403 5.543068 0.679501 -0.447256 25.305382 -47.445282 -8.435348 14.944477 1.041369 0.000000 0.000000 -16.763016 5.030478 46.211746
0.253523 -1.704329 21.835669 12.249317 13.294977 -3.927295 -0.394591 2.550797 4.455184 -19.828459 9.281761 60.087296 -0.461764 0.062023 -14.475204 5.980532 -19.926567 -21.017511 -0.026962 -0.984861 15.007833 -0.112874 1.381687 -0.284439 -12.827580 0.384145 -54.983692 -4.471772 -4.744032 8.321406 3.132333 -9.138190 16.076162 0.428176 12.374925 -8.415861 -15.966413 -4.374863 -2.509581 -0.904715 -8.862564 1.806666 6.346740 -5.242191 2.566153 -1.762317 0.293941 0.948884 3.242687 -0.133328 -3.619462 0.726468 2.166723 3.399705 -3.783252 0.428134 0.649374 -10.041610 -20.622507 13.649142 6.869177 1.398933 -4.017949 -0.225485 -0.417875 -4.139862 -11.928810 -9.769149 1.625472 0.243312 0.000000 0.000000 29.148359 8.729429 23.773405 -0.692189 -0.275927 -0.684518 -16.814938 -23.111147 -30.489222 16.915306 -6.375011 5.431323 0.691218 -0.464717 25.885736 -48.609833 -7.842937 14.070642 1.053244 0.000000 0.000000 -16.553709 4.656486 46.797649
0.274849 -1.681125 21.975967 12.160705 13.393117 -3.877201 -0.273136 2.563262 4.478429 -19.819992 9.412551 60.562977 -0.504841 -0.010651 -15.009347 6.031700 -20.117500 -20.868540 -0.020122 -0.953118 15.028200 -0.172269 1.386862 -0.279807 -12.755073 0.561639 -54.899975 -4.224703 -4.620283 7.506782 3.180435 -9.176760 16.282587 0.406466 12.638415 -8.448389 -15.980676 -4.369167 -2.494356 -0.894651 -8.889749 1.846545 6.394917 -5.322407 2.602097 -1.713589 0.252943 0.938929 3.254933 -0.103284 -3.732525 0.703946 2.191279 3.377464 -3.873590 0.432549 0.636788 -10.232819 -20.674391 13.405569 6.798099 1.220948 -4.073039 -0.227751 -0.417004 -4.511900 -12.028977 -9.548935 1.587757 0.245017 0.000000 0.000000 29.298218 8.528832 24.231997 -0.691467 -0.265369 -0.675766 -16.970758 -23.099861 -30.745193 17.017132 -6.313963 5.312962 0.706447 -0.478923 26.461718 -49.947975 -7.295218 13.040890 1.060419 0.000000 0.000000 -16.492826 4.155309 47.575962
0.289864 -1.689505 21.928860 12.073871 13.505951 -3.891688 -0.191056 2.561179 4.481057 -19.831575 9.531718 60.883183 -0.565992 -0.121134 -15.670448 6.087956 -20.348200 -20.782143 -0.023642 -1.002229 14.868187 -0.243413 1.381928 -0.324112 -12.843340 0.790505 -54.645481 -4.035886 -4.543653 6.536326 3.196498 -9.118996 16.702217 0.417596 12.924005 -8.398602 -16.012199 -4.374157 -2.499707 -0.895557 -8.911497 1.887064 6.445327 -5.396553 2.659504 -1.657107 0.216397 0.910856 3.263728 -0.074423 -3.845844 0.624174 2.190894 3.328195 -3.984816 0.446823 0.618260 -10.549708 -20.751986 13.433502 6.756792 1.131106 -4.103326 -0.235226 -0.408381 -4.799124 -12.103003 -9.209259 1.597582 0.254163 0.000000 0.000000 29.668598 8.541176 24.896433 -0.676351 -0.253069 -0.669151 -17.144077 -23.058455 -30.992580 17.093206 -6.301712 5.215476 0.726222 -0.495020 26.963173 -51.378311 -6.854964 11.825043 1.062836 0.000000 0.000000 -16.662619 3.512189 48.718990
0.303615 -1.676685 21.931026 11.998813 13.642879 -3.865055 -0.064193 2.579544 4.504330 -19.783438 9.702891 61.300053 -0.605740 -0.165739 -16.157745 6.173251 -20.463610 -20.555107 -0.004191 -0.980039 14.929640 -0.199348 1.416744 -0.296092 -12.724974 1.118214 -54.183662 -3.858438 -4.460838 5.859717 3.289685 -8.840135 17.384373 0.421164 13.122750 -8.343556 -16.054348 -4.379883 -2.496366 -0.887318 -8.922237 1.926250 6.496047 -5.466575 2.732035 -1.590402 0.191151 0.916524 3.285293 -0.025308 -3.921050 0.569544 2.202380 3.328301 -4.034974 0.505900 0.611827 -10.596823 -20.724451 13.671077 6.779711 1.104115 -4.116878 -0.239585 -0.394559 -5.020438 -12.171616 -8.855813 1.616480 0.260927 0.000000 0.000000 29.937227 8.411318 25.437298 -0.674707 -0.252253 -0.664366 -17.324623 -23.022028 -31.238686 17.173620 -6.298120 5.131367 0.749267 -0.507127 27.462374 -52.557549 -6.282665 10.811091 1.070600 0.000000 0.000000 -16.534966 3.053985 50.194511
0.314793 -1.668485 21.878225 11.906184 13.754658 -3.815988 0.092014 2.621730 4.532926 -19.716436 9.887040 61.647919 -0.656219 -0.206865 -16.709854 6.280498 -20.482935 -20.314959 0.017826 -0.949421 15.110364 -0.112008 1.464370 -0.275364 -12.585938 1.358392 -53.664520 -3.621231 -4.283340 5.605478 3.443380 -8.802731 17.853195 0.414659 13.309181 -8.057758 -16.075176 -4.398777 -2.516679 -0.876329 -8.921861 1.987515 6.565839 -5.519664 2.825948 -1.545537 0.154528 0.910987 3.339608 0.032903 -3.941457 0.532824 2.217400 3.345462 -4.053733 0.544952 0.597167 -10.741819 -20.708073 14.314080 6.827884 1.081070 -4.133527 -0.258657 -0.410136 -5.344063 -12.341664 -8.603088 1.626545 0.260883 0.000000 0.000000 30.057163 8.066839 25.768776 -0.685935 -0.260704 -0.661244 -17.519367 -22.901485 -31.469305 17.210976 -6.373315 4.947721 0.768030 -0.513297 27.950331 -53.152370 -5.630386 9.919930 1.079349 0.000000 0.000000 -16.357222 2.635239 51.853058
0.361196 -1.646076 21.850767 11.829373 13.889540 -3.765120 0.257845 2.660918 4.553218 -19.641973 10.079851 61.944069 -0.706944 -0.246893 -17.326685 6.367398 -20.582861 -20.210205 0.014507 -0.985927 15.230588 -0.108511 1.476352 -0.306596 -12.543124 1.511160 -53.225311 -3.431282 -4.204234 5.102694 3.534317 -8.976699 17.718653 0.375503 13.379710 -8.138164 -16.168339 -4.431042 -2.548437 -0.887689 -8.943599 1.995928 6.600820 -5.574931 2.944005 -1.511420 0.114956 0.854215 3.414594 0.082801 -3.959544 0.561468 2.270877 3.413500 -4.003062 0.654490 0.590914 -10.778088 -20.622339 14.751450 6.766184 0.989871 -4.160077 -0.279891 -0.428058 -5.664830 -12.551621 -8.352927 1.615175 0.260718 0.000000 0.000000 30.165890 7.739580 26.090872 -0.708422 -0.276439 -0.661119 -17.739119 -22.775845 -31.724689 17.251345 -6.486695 4.710876 0.784774 -0.524054 28.331638 -53.820694 -5.189262 8.842152 1.081736 0.000000 0.000000 -16.273073 2.209139 52.891506
0.382965 -1.637139 21.774529 11.758101 14.052700 -3.755734 0.406109 2.679148 4.561892 -19.557053 10.280064 62.300827 -0.738356 -0.263961 -17.963659 6.427940 -20.767347 -20.106331 0.012752 -1.031876 15.414170 -0.072213 1.497997 -0.290333 -12.319962 1.634378 -52.903011 -3.240355 -4.110461 4.944901 3.681311 -9.034698 17.815378 0.341911 13.493220 -8.268576 -16.320784 -4.469724 -2.612444 -0.932479 -9.012423 1.879031 6.568313 -5.645147 2.947851 -1.580691 0.005386 0.626867 3.401274 -0.017787 -4.217463 0.465008 2.250912 3.237951 -4.264444 0.534702 0.523914 -12.295767 -20.947241 13.836843 6.455962 0.771958 -4.197500 -0.287323 -0.423275 -6.000210 -12.824655 -8.037580 1.602523 0.252671 0.000000 0.000000 30.210825 7.422676 26.392065 -0.735666 -0.301178 -0.668555 -18.017527 -22.729851 -32.036476 17.332939 -6.623439 4.528990 0.806110 -0.536826 28.649065 -54.572891 -4.738883 7.939286 1.084445 0.000000 0.000000 -16.233116 1.796706 53.202145
0.415565 -1.596738 21.806099 11.707237 14.240960 -3.710372 0.592805 2.712600 4.585845 -19.418005 10.520745 62.696960 -0.760165 -0.274251 -18.654423 6.487949 -20.958111 -20.000931 0.011484 -1.068216 15.654890 -0.029172 1.518281 -0.277062 -12.110003 1.754898 -52.609901 -3.007816 -3.941827 4.995752 3.861846 -9.068502 17.989517 0.343667 13.749547 -7.953367 -16.341837 -4.438135 -2.484760 -0.923137 -9.015639 1.893148 6.624424 -5.663623 3.120506 -1.538682 -0.023227 0.501891 3.415274 -0.038248 -4.390523 0.384246 2.225082 3.094557 -4.520010 0.448602 0.458910 -14.103759 -21.307621 13.033648 6.260904 0.640542 -4.186201 -0.284620 -0.395033 -6.133786 -13.034652 -7.576264 1.679408 0.257420 0.000000 0.000000 30.633024 7.524480 27.036459 -0.709492 -0.289635 -0.662598 -18.062767 -22.602289 -32.193321 17.596313 -6.629445 4.450223 0.841378 -0.538847 29.029734 -54.734707 -3.935622 7.599041 1.099414 0.000000 0.000000 -15.716007 1.664879 53.976875
